<svg xmlns="http://www.w3.org/2000/svg" version="1.1" xmlns:xlink="http://www.w3.org/1999/xlink" xmlns:svgjs="http://svgjs.dev/svgjs" viewBox="0 0 16.524928150596246 6.554218802309622"><g transform="matrix(1,0,0,1,8.21072156909096,2.119377467561061)"><g><path d=" M 0.082763671875 0.029296875 L 0.595458984375 0.029296875 Q 0.68115234375 0.029296875 0.7529296875 0.0560302734375 Q 0.82470703125 0.082763671875 0.876708984375 0.128173828125 Q 0.9287109375 0.173583984375 0.9580078125 0.23291015625 Q 0.9873046875 0.292236328125 0.9873046875 0.356689453125 Q 0.9873046875 0.434326171875 0.9642333984375 0.5020751953125 Q 0.941162109375 0.56982421875 0.892822265625 0.61962890625 Q 0.844482421875 0.66943359375 0.7705078125 0.6983642578125 Q 0.696533203125 0.727294921875 0.595458984375 0.727294921875 L 0.44091796875 0.727294921875 L 0.44091796875 0.93896484375 L 0.542724609375 0.93896484375 L 0.542724609375 1.1396484375 L 0.082763671875 1.1396484375 L 0.082763671875 0.93896484375 L 0.19775390625 0.93896484375 L 0.19775390625 0.230712890625 L 0.082763671875 0.230712890625 L 0.082763671875 0.029296875 M 0.44091796875 0.230712890625 L 0.44091796875 0.52880859375 L 0.541259765625 0.52880859375 Q 0.624755859375 0.52880859375 0.673828125 0.49365234375 Q 0.722900390625 0.45849609375 0.722900390625 0.38232421875 Q 0.722900390625 0.311279296875 0.6767578125 0.27099609375 Q 0.630615234375 0.230712890625 0.541259765625 0.230712890625 L 0.44091796875 0.230712890625 M 1.553466796875 0.380859375 L 1.912353515625 0.380859375 L 1.912353515625 0.93896484375 L 2.00390625 0.93896484375 L 2.00390625 1.1396484375 L 1.682373046875 1.1396484375 L 1.682373046875 1.0751953125 Q 1.6435546875 1.1103515625 1.591552734375 1.12939453125 Q 1.53955078125 1.1484375 1.471435546875 1.1484375 Q 1.408447265625 1.1484375 1.352783203125 1.128662109375 Q 1.297119140625 1.10888671875 1.2557373046875 1.0689697265625 Q 1.21435546875 1.029052734375 1.1905517578125 0.968994140625 Q 1.166748046875 0.908935546875 1.166748046875 0.82763671875 L 1.166748046875 0.58154296875 L 1.06787109375 0.58154296875 L 1.06787109375 0.380859375 L 1.4033203125 0.380859375 L 1.4033203125 0.82763671875 Q 1.4033203125 0.90380859375 1.442138671875 0.9415283203125 Q 1.48095703125 0.979248046875 1.543212890625 0.979248046875 Q 1.587158203125 0.979248046875 1.623046875 0.9521484375 Q 1.658935546875 0.925048828125 1.675048828125 0.87890625 L 1.675048828125 0.58154296875 L 1.553466796875 0.58154296875 L 1.553466796875 0.380859375 M 2.098388671875 0 L 2.4404296875 0 L 2.4404296875 0.93896484375 L 2.5576171875 0.93896484375 L 2.5576171875 1.1396484375 L 2.098388671875 1.1396484375 L 2.098388671875 0.93896484375 L 2.215576171875 0.93896484375 L 2.215576171875 0.20068359375 L 2.098388671875 0.20068359375 L 2.098388671875 0 M 3.1563720703125 0.579345703125 Q 3.14501953125 0.563232421875 3.123046875 0.5511474609375 Q 3.10107421875 0.5390625 3.0692138671875 0.53173828125 Q 3.037353515625 0.5244140625 2.9970703125 0.5244140625 Q 2.981689453125 0.5244140625 2.964111328125 0.5269775390625 Q 2.946533203125 0.529541015625 2.9315185546875 0.5361328125 Q 2.91650390625 0.542724609375 2.9066162109375 0.5540771484375 Q 2.896728515625 0.5654296875 2.896728515625 0.5830078125 Q 2.896728515625 0.591796875 2.8992919921875 0.599853515625 Q 2.90185546875 0.60791015625 2.9091796875 0.615234375 Q 2.91650390625 0.62255859375 2.9293212890625 0.6287841796875 Q 2.942138671875 0.635009765625 2.962646484375 0.638671875 L 3.100341796875 0.665771484375 Q 3.175048828125 0.680419921875 3.2255859375 0.702392578125 Q 3.276123046875 0.724365234375 3.306884765625 0.753662109375 Q 3.337646484375 0.782958984375 3.3511962890625 0.81884765625 Q 3.36474609375 0.854736328125 3.36474609375 0.896484375 Q 3.36474609375 0.961669921875 3.3343505859375 1.0107421875 Q 3.303955078125 1.059814453125 3.2545166015625 1.0924072265625 Q 3.205078125 1.125 3.1431884765625 1.1414794921875 Q 3.081298828125 1.157958984375 3.018310546875 1.157958984375 Q 2.977294921875 1.157958984375 2.9439697265625 1.15283203125 Q 2.91064453125 1.147705078125 2.8839111328125 1.138916015625 Q 2.857177734375 1.130126953125 2.8363037109375 1.1180419921875 Q 2.8154296875 1.10595703125 2.7978515625 1.09130859375 L 2.665283203125 1.09130859375 L 2.665283203125 0.8876953125 L 2.87255859375 0.8876953125 L 2.87255859375 0.89208984375 Q 2.873291015625 0.913330078125 2.8857421875 0.9290771484375 Q 2.898193359375 0.94482421875 2.9183349609375 0.955810546875 Q 2.9384765625 0.966796875 2.964111328125 0.9722900390625 Q 2.98974609375 0.977783203125 3.018310546875 0.977783203125 Q 3.084228515625 0.977783203125 3.1142578125 0.9605712890625 Q 3.144287109375 0.943359375 3.144287109375 0.916259765625 Q 3.144287109375 0.89501953125 3.129638671875 0.8800048828125 Q 3.114990234375 0.864990234375 3.07763671875 0.856201171875 L 2.93701171875 0.826171875 Q 2.804443359375 0.800537109375 2.737060546875 0.7408447265625 Q 2.669677734375 0.68115234375 2.669677734375 0.58740234375 Q 2.669677734375 0.532470703125 2.6953125 0.4874267578125 Q 2.720947265625 0.4423828125 2.764892578125 0.4105224609375 Q 2.808837890625 0.378662109375 2.8677978515625 0.361083984375 Q 2.9267578125 0.343505859375 2.994140625 0.343505859375 Q 3.040283203125 0.343505859375 3.076171875 0.3489990234375 Q 3.112060546875 0.3544921875 3.140625 0.36328125 Q 3.169189453125 0.3720703125 3.1907958984375 0.3841552734375 Q 3.21240234375 0.396240234375 3.229248046875 0.409423828125 L 3.356689453125 0.409423828125 L 3.356689453125 0.613037109375 L 3.167724609375 0.613037109375 Q 3.167724609375 0.595458984375 3.1563720703125 0.579345703125 M 3.686279296875 0.807861328125 L 3.6884765625 0.83056640625 Q 3.696533203125 0.863525390625 3.7159423828125 0.888427734375 Q 3.7353515625 0.913330078125 3.76171875 0.93017578125 Q 3.7880859375 0.947021484375 3.8203125 0.9554443359375 Q 3.8525390625 0.9638671875 3.885498046875 0.9638671875 Q 3.91845703125 0.9638671875 3.9481201171875 0.9598388671875 Q 3.977783203125 0.955810546875 4.005615234375 0.9488525390625 Q 4.033447265625 0.94189453125 4.059814453125 0.9327392578125 Q 4.086181640625 0.923583984375 4.11328125 0.913330078125 L 4.19384765625 1.0634765625 Q 4.152099609375 1.089111328125 4.1173095703125 1.1070556640625 Q 4.08251953125 1.125 4.04736328125 1.13671875 Q 4.01220703125 1.1484375 3.97265625 1.1539306640625 Q 3.93310546875 1.159423828125 3.88037109375 1.159423828125 Q 3.781494140625 1.159423828125 3.70458984375 1.1268310546875 Q 3.627685546875 1.09423828125 3.5753173828125 1.03857421875 Q 3.52294921875 0.98291015625 3.4954833984375 0.908203125 Q 3.468017578125 0.83349609375 3.468017578125 0.75 Q 3.468017578125 0.66650390625 3.4969482421875 0.59326171875 Q 3.52587890625 0.52001953125 3.57861328125 0.4654541015625 Q 3.63134765625 0.410888671875 3.70458984375 0.37939453125 Q 3.77783203125 0.347900390625 3.8671875 0.347900390625 Q 3.95654296875 0.347900390625 4.0257568359375 0.3775634765625 Q 4.094970703125 0.4072265625 4.142578125 0.4595947265625 Q 4.190185546875 0.511962890625 4.2158203125 0.5826416015625 Q 4.241455078125 0.6533203125 4.24365234375 0.734619140625 Q 4.245849609375 0.7529296875 4.2462158203125 0.7708740234375 Q 4.24658203125 0.788818359375 4.2451171875 0.807861328125 L 3.686279296875 0.807861328125 M 3.861328125 0.531005859375 Q 3.8203125 0.531005859375 3.7913818359375 0.5408935546875 Q 3.762451171875 0.55078125 3.74267578125 0.5679931640625 Q 3.722900390625 0.585205078125 3.711181640625 0.607177734375 Q 3.699462890625 0.629150390625 3.69287109375 0.6533203125 L 4.010009765625 0.6533203125 Q 4.0048828125 0.62841796875 3.995361328125 0.6064453125 Q 3.98583984375 0.58447265625 3.968994140625 0.567626953125 Q 3.9521484375 0.55078125 3.9261474609375 0.5408935546875 Q 3.900146484375 0.531005859375 3.861328125 0.531005859375 M 4.679443359375 0.029296875 L 5.192138671875 0.029296875 Q 5.27783203125 0.029296875 5.349609375 0.0560302734375 Q 5.42138671875 0.082763671875 5.473388671875 0.128173828125 Q 5.525390625 0.173583984375 5.5546875 0.23291015625 Q 5.583984375 0.292236328125 5.583984375 0.356689453125 Q 5.583984375 0.434326171875 5.5609130859375 0.5020751953125 Q 5.537841796875 0.56982421875 5.489501953125 0.61962890625 Q 5.441162109375 0.66943359375 5.3671875 0.6983642578125 Q 5.293212890625 0.727294921875 5.192138671875 0.727294921875 L 5.03759765625 0.727294921875 L 5.03759765625 0.93896484375 L 5.139404296875 0.93896484375 L 5.139404296875 1.1396484375 L 4.679443359375 1.1396484375 L 4.679443359375 0.93896484375 L 4.79443359375 0.93896484375 L 4.79443359375 0.230712890625 L 4.679443359375 0.230712890625 L 4.679443359375 0.029296875 M 5.03759765625 0.230712890625 L 5.03759765625 0.52880859375 L 5.137939453125 0.52880859375 Q 5.221435546875 0.52880859375 5.2705078125 0.49365234375 Q 5.319580078125 0.45849609375 5.319580078125 0.38232421875 Q 5.319580078125 0.311279296875 5.2734375 0.27099609375 Q 5.227294921875 0.230712890625 5.137939453125 0.230712890625 L 5.03759765625 0.230712890625 M 6.145751953125 1.0986328125 Q 6.1201171875 1.11474609375 6.098876953125 1.1260986328125 Q 6.07763671875 1.137451171875 6.056396484375 1.1444091796875 Q 6.03515625 1.1513671875 6.012451171875 1.1546630859375 Q 5.98974609375 1.157958984375 5.962646484375 1.157958984375 Q 5.89453125 1.157958984375 5.8406982421875 1.1392822265625 Q 5.786865234375 1.12060546875 5.7498779296875 1.0880126953125 Q 5.712890625 1.055419921875 5.693115234375 1.0111083984375 Q 5.67333984375 0.966796875 5.67333984375 0.914794921875 Q 5.67333984375 0.862060546875 5.6934814453125 0.8173828125 Q 5.713623046875 0.772705078125 5.751708984375 0.7408447265625 Q 5.789794921875 0.708984375 5.8450927734375 0.6910400390625 Q 5.900390625 0.673095703125 5.971435546875 0.673095703125 Q 6.0234375 0.673095703125 6.0662841796875 0.6785888671875 Q 6.109130859375 0.68408203125 6.145751953125 0.692138671875 L 6.145751953125 0.668701171875 Q 6.145751953125 0.64013671875 6.134765625 0.6192626953125 Q 6.123779296875 0.598388671875 6.10400390625 0.5848388671875 Q 6.084228515625 0.5712890625 6.056396484375 0.5650634765625 Q 6.028564453125 0.558837890625 5.99560546875 0.558837890625 Q 5.9267578125 0.558837890625 5.8743896484375 0.5723876953125 Q 5.822021484375 0.5859375 5.773681640625 0.611572265625 L 5.703369140625 0.469482421875 Q 5.778076171875 0.418212890625 5.8597412109375 0.39111328125 Q 5.94140625 0.364013671875 6.032958984375 0.364013671875 Q 6.10400390625 0.364013671875 6.1644287109375 0.3797607421875 Q 6.224853515625 0.3955078125 6.26806640625 0.4310302734375 Q 6.311279296875 0.466552734375 6.3358154296875 0.523681640625 Q 6.3603515625 0.580810546875 6.3603515625 0.662841796875 L 6.3603515625 0.93896484375 L 6.462158203125 0.93896484375 L 6.462158203125 1.1396484375 L 6.145751953125 1.1396484375 L 6.145751953125 1.0986328125 M 5.978759765625 0.985107421875 Q 6.03076171875 0.985107421875 6.0732421875 0.96826171875 Q 6.11572265625 0.951416015625 6.145751953125 0.92724609375 L 6.145751953125 0.83056640625 L 5.969970703125 0.83056640625 Q 5.953125 0.83056640625 5.93701171875 0.835693359375 Q 5.9208984375 0.8408203125 5.9080810546875 0.850341796875 Q 5.895263671875 0.85986328125 5.8875732421875 0.873779296875 Q 5.8798828125 0.8876953125 5.8798828125 0.906005859375 Q 5.8798828125 0.939697265625 5.9044189453125 0.96240234375 Q 5.928955078125 0.985107421875 5.978759765625 0.985107421875 M 6.593994140625 0.380859375 L 6.966064453125 0.380859375 L 6.966064453125 0.58154296875 L 6.907470703125 0.58154296875 L 7.0166015625 0.86572265625 L 7.128662109375 0.58154296875 L 7.0634765625 0.58154296875 L 7.0634765625 0.380859375 L 7.435546875 0.380859375 L 7.435546875 0.58154296875 L 7.352783203125 0.58154296875 L 7.05908203125 1.283935546875 L 7.189453125 1.283935546875 L 7.189453125 1.484619140625 L 6.718505859375 1.484619140625 L 6.718505859375 1.283935546875 L 6.85107421875 1.283935546875 L 6.908203125 1.1396484375 L 6.6708984375 0.58154296875 L 6.593994140625 0.58154296875 L 6.593994140625 0.380859375" fill="#ffffff" fill-rule="nonzero"></path></g><g><path d=" M 0.27099609375 1.9382666015624999 Q 0.26123046875 1.9248388671874999 0.249481201171875 1.9176672363281249 Q 0.23773193359375 1.9104956054687499 0.22369384765625 1.9066809082031249 Q 0.20965576171875 1.9028662109374999 0.19561767578125 1.9028662109374999 Q 0.17242431640625 1.9028662109374999 0.155029296875 1.9082067871093749 Q 0.13763427734375 1.9135473632812499 0.126190185546875 1.9227026367187499 Q 0.11474609375 1.9318579101562499 0.10894775390625 1.9440649414062499 Q 0.1031494140625 1.9562719726562499 0.1031494140625 1.9696997070312499 Q 0.1031494140625 1.9898413085937499 0.110321044921875 2.002200927734375 Q 0.11749267578125 2.014560546875 0.12847900390625 2.022037353515625 Q 0.13946533203125 2.02951416015625 0.152740478515625 2.03378662109375 Q 0.166015625 2.03805908203125 0.17822265625 2.04233154296875 L 0.2398681640625 2.06247314453125 Q 0.26763916015625 2.0713232421875 0.288848876953125 2.08261474609375 Q 0.31005859375 2.09390625 0.32440185546875 2.109317626953125 Q 0.3387451171875 2.12472900390625 0.346221923828125 2.14487060546875 Q 0.35369873046875 2.16501220703125 0.35369873046875 2.1915625 Q 0.35369873046875 2.2202490234375 0.341949462890625 2.2446630859375 Q 0.3302001953125 2.2690771484375 0.30914306640625 2.28708251953125 Q 0.2880859375 2.305087890625 0.258941650390625 2.315311279296875 Q 0.22979736328125 2.32553466796875 0.19500732421875 2.32553466796875 Q 0.1593017578125 2.32553466796875 0.13397216796875 2.317447509765625 Q 0.108642578125 2.3093603515625 0.091400146484375 2.295780029296875 Q 0.07415771484375 2.28219970703125 0.06378173828125 2.2648046875 Q 0.05340576171875 2.24740966796875 0.047607421875 2.22909912109375 L 0.0244140625 2.22909912109375 L 0.0244140625 2.17660888671875 L 0.101318359375 2.17660888671875 Q 0.101318359375 2.2104833984375 0.108489990234375 2.224521484375 Q 0.11566162109375 2.2385595703125 0.12847900390625 2.247867431640625 Q 0.14129638671875 2.25717529296875 0.15899658203125 2.261905517578125 Q 0.17669677734375 2.2666357421875 0.19805908203125 2.2666357421875 Q 0.21881103515625 2.2666357421875 0.235443115234375 2.2617529296875 Q 0.2520751953125 2.2568701171875 0.263824462890625 2.247562255859375 Q 0.27557373046875 2.23825439453125 0.281829833984375 2.224979248046875 Q 0.2880859375 2.2117041015625 0.2880859375 2.19491943359375 Q 0.2880859375 2.1763037109375 0.280303955078125 2.163333740234375 Q 0.27252197265625 2.15036376953125 0.26031494140625 2.14120849609375 Q 0.24810791015625 2.13205322265625 0.233612060546875 2.1262548828125 Q 0.2191162109375 2.12045654296875 0.2056884765625 2.11618408203125 L 0.13885498046875 2.09726318359375 Q 0.11688232421875 2.09054931640625 0.098724365234375 2.08017333984375 Q 0.08056640625 2.06979736328125 0.067596435546875 2.05484375 Q 0.05462646484375 2.03989013671875 0.047607421875 2.019901123046875 Q 0.04058837890625 1.9999121093749999 0.04058837890625 1.9736669921874999 Q 0.04058837890625 1.9471166992187499 0.05096435546875 1.9239233398437499 Q 0.06134033203125 1.9007299804687499 0.08148193359375 1.8833349609374999 Q 0.10162353515625 1.8659399414062499 0.130767822265625 1.8560217285156249 Q 0.159912109375 1.8461035156249999 0.19744873046875 1.8461035156249999 Q 0.22216796875 1.8461035156249999 0.243072509765625 1.8519018554687499 Q 0.26397705078125 1.8577001953124999 0.280914306640625 1.8682287597656249 Q 0.2978515625 1.8787573242187499 0.310821533203125 1.8935583496093749 Q 0.32379150390625 1.9083593749999999 0.3326416015625 1.9260595703124999 L 0.35552978515625 1.9260595703124999 L 0.35552978515625 1.9785498046874999 L 0.28076171875 1.9785498046874999 Q 0.28076171875 1.9516943359374999 0.27099609375 1.9382666015624999 M 0.454254150390625 2.16470703125 Q 0.454254150390625 2.178134765625 0.45623779296875 2.189273681640625 Q 0.458221435546875 2.20041259765625 0.461883544921875 2.2104833984375 Q 0.473175048828125 2.2410009765625 0.498046875 2.256412353515625 Q 0.522918701171875 2.27182373046875 0.554351806640625 2.27182373046875 Q 0.579071044921875 2.27182373046875 0.6024169921875 2.264957275390625 Q 0.625762939453125 2.2580908203125 0.651397705078125 2.2434423828125 L 0.674285888671875 2.28219970703125 Q 0.643157958984375 2.30356201171875 0.611724853515625 2.31393798828125 Q 0.580291748046875 2.32431396484375 0.546417236328125 2.32431396484375 Q 0.514373779296875 2.32431396484375 0.487060546875 2.3136328125 Q 0.459747314453125 2.30295166015625 0.4400634765625 2.28189453125 Q 0.420379638671875 2.26083740234375 0.40924072265625 2.229404296875 Q 0.398101806640625 2.19797119140625 0.398101806640625 2.156162109375 Q 0.398101806640625 2.12228759765625 0.407562255859375 2.092227783203125 Q 0.417022705078125 2.06216796875 0.435791015625 2.039737548828125 Q 0.454559326171875 2.01730712890625 0.482330322265625 2.0041845703125 Q 0.510101318359375 1.9910620117187499 0.547027587890625 1.9910620117187499 Q 0.582733154296875 1.9910620117187499 0.606689453125 2.001895751953125 Q 0.630645751953125 2.0127294921875 0.645751953125 2.030582275390625 Q 0.660858154296875 2.04843505859375 0.66864013671875 2.0713232421875 Q 0.676422119140625 2.09421142578125 0.679473876953125 2.11801513671875 Q 0.680999755859375 2.12961181640625 0.68145751953125 2.141513671875 Q 0.681915283203125 2.15341552734375 0.681915283203125 2.16470703125 L 0.454254150390625 2.16470703125 M 0.543060302734375 2.03866943359375 Q 0.523223876953125 2.03866943359375 0.5084228515625 2.044315185546875 Q 0.493621826171875 2.0499609375 0.483245849609375 2.060489501953125 Q 0.472869873046875 2.07101806640625 0.46661376953125 2.08627685546875 Q 0.460357666015625 2.10153564453125 0.457305908203125 2.12045654296875 L 0.621185302734375 2.12045654296875 Q 0.619964599609375 2.10275634765625 0.61553955078125 2.087802734375 Q 0.611114501953125 2.07284912109375 0.601959228515625 2.06186279296875 Q 0.592803955078125 2.05087646484375 0.578460693359375 2.04477294921875 Q 0.564117431640625 2.03866943359375 0.543060302734375 2.03866943359375 M 0.9912109375 2.28769287109375 Q 0.97564697265625 2.30417236328125 0.955047607421875 2.31332763671875 Q 0.9344482421875 2.32248291015625 0.908203125 2.32248291015625 Q 0.87615966796875 2.32248291015625 0.848541259765625 2.311343994140625 Q 0.8209228515625 2.300205078125 0.800628662109375 2.278690185546875 Q 0.78033447265625 2.25717529296875 0.768890380859375 2.225894775390625 Q 0.7574462890625 2.1946142578125 0.7574462890625 2.1543310546875 Q 0.7574462890625 2.1177099609375 0.7684326171875 2.087650146484375 Q 0.7794189453125 2.05759033203125 0.799560546875 2.036380615234375 Q 0.8197021484375 2.0151708984375 0.84808349609375 2.003421630859375 Q 0.87646484375 1.9916723632812499 0.9112548828125 1.9916723632812499 Q 0.93505859375 1.9916723632812499 0.954132080078125 1.9970129394531249 Q 0.97320556640625 2.002353515625 0.9912109375 2.01547607421875 L 0.9912109375 1.9993017578124999 L 1.0479736328125 1.9993017578124999 L 1.0479736328125 2.30295166015625 Q 1.0479736328125 2.37802490234375 1.012420654296875 2.41647705078125 Q 0.97686767578125 2.45492919921875 0.90179443359375 2.45492919921875 Q 0.88531494140625 2.45492919921875 0.8673095703125 2.45248779296875 Q 0.84930419921875 2.45004638671875 0.831756591796875 2.444705810546875 Q 0.814208984375 2.439365234375 0.797576904296875 2.43112548828125 Q 0.78094482421875 2.4228857421875 0.76690673828125 2.41098388671875 L 0.79742431640625 2.36490234375 Q 0.80657958984375 2.3728369140625 0.818328857421875 2.37955078125 Q 0.830078125 2.3862646484375 0.843505859375 2.390994873046875 Q 0.85693359375 2.39572509765625 0.87127685546875 2.3984716796875 Q 0.8856201171875 2.40121826171875 0.89996337890625 2.40121826171875 Q 0.9234619140625 2.40121826171875 0.940704345703125 2.39633544921875 Q 0.95794677734375 2.39145263671875 0.969085693359375 2.379093017578125 Q 0.980224609375 2.3667333984375 0.9857177734375 2.34567626953125 Q 0.9912109375 2.324619140625 0.9912109375 2.2922705078125 L 0.9912109375 2.28769287109375 M 0.91552734375 2.27304443359375 Q 0.9295654296875 2.27304443359375 0.941162109375 2.2702978515625 Q 0.9527587890625 2.26755126953125 0.96221923828125 2.263126220703125 Q 0.9716796875 2.258701171875 0.978851318359375 2.25290283203125 Q 0.98602294921875 2.2471044921875 0.9912109375 2.24069580078125 L 0.9912109375 2.0676611328125 Q 0.97564697265625 2.05392822265625 0.955352783203125 2.04782470703125 Q 0.93505859375 2.04172119140625 0.9136962890625 2.04172119140625 Q 0.8935546875 2.04172119140625 0.8758544921875 2.049197998046875 Q 0.858154296875 2.0566748046875 0.844879150390625 2.07101806640625 Q 0.83160400390625 2.085361328125 0.823974609375 2.10611328125 Q 0.81634521484375 2.126865234375 0.81634521484375 2.153720703125 Q 0.81634521484375 2.183017578125 0.82366943359375 2.20529541015625 Q 0.83099365234375 2.2275732421875 0.8441162109375 2.242679443359375 Q 0.85723876953125 2.25778564453125 0.87554931640625 2.2654150390625 Q 0.89385986328125 2.27304443359375 0.91552734375 2.27304443359375 M 1.317291259765625 1.9993017578124999 L 1.419219970703125 1.9993017578124999 L 1.419219970703125 2.2629736328125 L 1.454315185546875 2.2629736328125 L 1.454315185546875 2.3154638671875 L 1.362152099609375 2.3154638671875 L 1.362152099609375 2.2861669921875 Q 1.340789794921875 2.302646484375 1.31561279296875 2.3118017578125 Q 1.290435791015625 2.32095703125 1.261749267578125 2.32095703125 Q 1.237945556640625 2.32095703125 1.21856689453125 2.314090576171875 Q 1.199188232421875 2.30722412109375 1.18560791015625 2.292728271484375 Q 1.172027587890625 2.278232421875 1.164703369140625 2.25595458984375 Q 1.157379150390625 2.2336767578125 1.157379150390625 2.20285400390625 L 1.157379150390625 2.0517919921875 L 1.114654541015625 2.0517919921875 L 1.114654541015625 1.9993017578124999 L 1.216583251953125 1.9993017578124999 L 1.216583251953125 2.19614013671875 Q 1.216583251953125 2.2324560546875 1.233367919921875 2.25107177734375 Q 1.250152587890625 2.2696875 1.281585693359375 2.2696875 Q 1.300201416015625 2.2696875 1.32080078125 2.2629736328125 Q 1.341400146484375 2.256259765625 1.359710693359375 2.24435791015625 L 1.359710693359375 2.0517919921875 L 1.317291259765625 2.0517919921875 L 1.317291259765625 1.9993017578124999 M 1.7669677734375 2.06613525390625 L 1.708984375 2.06613525390625 L 1.708984375 2.04660400390625 Q 1.69891357421875 2.04660400390625 1.688385009765625 2.050418701171875 Q 1.6778564453125 2.0542333984375 1.668701171875 2.062015380859375 Q 1.6595458984375 2.06979736328125 1.652679443359375 2.081851806640625 Q 1.64581298828125 2.09390625 1.64276123046875 2.1103857421875 L 1.64276123046875 2.2629736328125 L 1.69647216796875 2.2629736328125 L 1.69647216796875 2.3154638671875 L 1.53961181640625 2.3154638671875 L 1.53961181640625 2.2629736328125 L 1.583251953125 2.2629736328125 L 1.58355712890625 2.0517919921875 L 1.53961181640625 2.0517919921875 L 1.53961181640625 1.9993017578124999 L 1.640625 1.9993017578124999 L 1.640625 2.04294189453125 Q 1.6461181640625 2.03317626953125 1.652984619140625 2.024783935546875 Q 1.65985107421875 2.0163916015625 1.668243408203125 2.010135498046875 Q 1.6766357421875 2.00387939453125 1.686859130859375 2.000369873046875 Q 1.69708251953125 1.9968603515624999 1.708984375 1.9968603515624999 Q 1.724853515625 1.9968603515624999 1.7388916015625 1.9968603515624999 Q 1.7529296875 1.9968603515624999 1.7669677734375 1.9974707031249999 L 1.7669677734375 2.06613525390625 M 1.829071044921875 2.1573828125 Q 1.829376220703125 2.11984619140625 1.84112548828125 2.0890234375 Q 1.852874755859375 2.05820068359375 1.873931884765625 2.036075439453125 Q 1.894989013671875 2.0139501953125 1.923980712890625 2.00204833984375 Q 1.952972412109375 1.9901464843749999 1.987762451171875 1.9901464843749999 Q 2.022857666015625 1.9901464843749999 2.052001953125 2.00204833984375 Q 2.081146240234375 2.0139501953125 2.101898193359375 2.035770263671875 Q 2.122650146484375 2.05759033203125 2.134246826171875 2.0884130859375 Q 2.145843505859375 2.11923583984375 2.145843505859375 2.1567724609375 Q 2.145843505859375 2.19369873046875 2.134246826171875 2.224674072265625 Q 2.122650146484375 2.2556494140625 2.101898193359375 2.27792724609375 Q 2.081146240234375 2.300205078125 2.052001953125 2.312564697265625 Q 2.022857666015625 2.32492431640625 1.987762451171875 2.32492431640625 Q 1.952056884765625 2.32492431640625 1.923065185546875 2.31271728515625 Q 1.894073486328125 2.30051025390625 1.873321533203125 2.278385009765625 Q 1.852569580078125 2.256259765625 1.840972900390625 2.22543701171875 Q 1.829376220703125 2.1946142578125 1.829071044921875 2.1573828125 M 1.889190673828125 2.1573828125 Q 1.889190673828125 2.18454345703125 1.89697265625 2.20651611328125 Q 1.904754638671875 2.22848876953125 1.9183349609375 2.243900146484375 Q 1.931915283203125 2.2593115234375 1.94976806640625 2.267703857421875 Q 1.967620849609375 2.27609619140625 1.987762451171875 2.27609619140625 Q 2.008819580078125 2.27609619140625 2.0269775390625 2.2678564453125 Q 2.045135498046875 2.25961669921875 2.058563232421875 2.244205322265625 Q 2.071990966796875 2.2287939453125 2.079620361328125 2.2068212890625 Q 2.087249755859375 2.1848486328125 2.087249755859375 2.1573828125 Q 2.087249755859375 2.1286962890625 2.079620361328125 2.10641845703125 Q 2.071990966796875 2.084140625 2.0587158203125 2.06918701171875 Q 2.045440673828125 2.0542333984375 2.027130126953125 2.04660400390625 Q 2.008819580078125 2.038974609375 1.987762451171875 2.038974609375 Q 1.967620849609375 2.038974609375 1.94976806640625 2.04660400390625 Q 1.931915283203125 2.0542333984375 1.9183349609375 2.06918701171875 Q 1.904754638671875 2.084140625 1.89697265625 2.10641845703125 Q 1.889190673828125 2.1286962890625 1.889190673828125 2.1573828125 M 2.399139404296875 2.16470703125 Q 2.399139404296875 2.178134765625 2.401123046875 2.189273681640625 Q 2.403106689453125 2.20041259765625 2.406768798828125 2.2104833984375 Q 2.418060302734375 2.2410009765625 2.44293212890625 2.256412353515625 Q 2.467803955078125 2.27182373046875 2.499237060546875 2.27182373046875 Q 2.523956298828125 2.27182373046875 2.54730224609375 2.264957275390625 Q 2.570648193359375 2.2580908203125 2.596282958984375 2.2434423828125 L 2.619171142578125 2.28219970703125 Q 2.588043212890625 2.30356201171875 2.556610107421875 2.31393798828125 Q 2.525177001953125 2.32431396484375 2.491302490234375 2.32431396484375 Q 2.459259033203125 2.32431396484375 2.43194580078125 2.3136328125 Q 2.404632568359375 2.30295166015625 2.38494873046875 2.28189453125 Q 2.365264892578125 2.26083740234375 2.3541259765625 2.229404296875 Q 2.342987060546875 2.19797119140625 2.342987060546875 2.156162109375 Q 2.342987060546875 2.12228759765625 2.352447509765625 2.092227783203125 Q 2.361907958984375 2.06216796875 2.38067626953125 2.039737548828125 Q 2.399444580078125 2.01730712890625 2.427215576171875 2.0041845703125 Q 2.454986572265625 1.9910620117187499 2.491912841796875 1.9910620117187499 Q 2.527618408203125 1.9910620117187499 2.55157470703125 2.001895751953125 Q 2.575531005859375 2.0127294921875 2.59063720703125 2.030582275390625 Q 2.605743408203125 2.04843505859375 2.613525390625 2.0713232421875 Q 2.621307373046875 2.09421142578125 2.624359130859375 2.11801513671875 Q 2.625885009765625 2.12961181640625 2.6263427734375 2.141513671875 Q 2.626800537109375 2.15341552734375 2.626800537109375 2.16470703125 L 2.399139404296875 2.16470703125 M 2.487945556640625 2.03866943359375 Q 2.468109130859375 2.03866943359375 2.45330810546875 2.044315185546875 Q 2.438507080078125 2.0499609375 2.428131103515625 2.060489501953125 Q 2.417755126953125 2.07101806640625 2.4114990234375 2.08627685546875 Q 2.405242919921875 2.10153564453125 2.402191162109375 2.12045654296875 L 2.566070556640625 2.12045654296875 Q 2.564849853515625 2.10275634765625 2.5604248046875 2.087802734375 Q 2.555999755859375 2.07284912109375 2.546844482421875 2.06186279296875 Q 2.537689208984375 2.05087646484375 2.523345947265625 2.04477294921875 Q 2.509002685546875 2.03866943359375 2.487945556640625 2.03866943359375 M 3.070526123046875 2.0835302734375 Q 3.057708740234375 2.06064208984375 3.03802490234375 2.0499609375 Q 3.018341064453125 2.03927978515625 2.992401123046875 2.03927978515625 Q 2.972564697265625 2.03927978515625 2.955169677734375 2.04751953125 Q 2.937774658203125 2.05575927734375 2.9248046875 2.07101806640625 Q 2.911834716796875 2.08627685546875 2.90435791015625 2.108096923828125 Q 2.896881103515625 2.1299169921875 2.896881103515625 2.1567724609375 Q 2.896881103515625 2.18332275390625 2.90435791015625 2.20468505859375 Q 2.911834716796875 2.22604736328125 2.924957275390625 2.241153564453125 Q 2.938079833984375 2.256259765625 2.955322265625 2.264346923828125 Q 2.972564697265625 2.27243408203125 2.992401123046875 2.27243408203125 Q 3.021697998046875 2.27243408203125 3.043365478515625 2.258243408203125 Q 3.065032958984375 2.244052734375 3.077850341796875 2.2165869140625 L 3.124847412109375 2.2397802734375 Q 3.115692138671875 2.2593115234375 3.102264404296875 2.27487548828125 Q 3.088836669921875 2.290439453125 3.0718994140625 2.30142578125 Q 3.054962158203125 2.312412109375 3.03466796875 2.318363037109375 Q 3.014373779296875 2.32431396484375 2.991790771484375 2.32431396484375 Q 2.958831787109375 2.32431396484375 2.930908203125 2.311954345703125 Q 2.902984619140625 2.2995947265625 2.8826904296875 2.27731689453125 Q 2.862396240234375 2.2550390625 2.851104736328125 2.22421630859375 Q 2.839813232421875 2.1933935546875 2.839813232421875 2.1567724609375 Q 2.839813232421875 2.1201513671875 2.851715087890625 2.08932861328125 Q 2.863616943359375 2.058505859375 2.884368896484375 2.036380615234375 Q 2.905120849609375 2.01425537109375 2.932891845703125 2.0017431640625 Q 2.960662841796875 1.9892309570312499 2.992401123046875 1.9892309570312499 Q 3.022308349609375 1.9892309570312499 3.04901123046875 1.9996069335937499 Q 3.075714111328125 2.00998291015625 3.095855712890625 2.0310400390625 L 3.127899169921875 2.0310400390625 L 3.127899169921875 2.0835302734375 L 3.070526123046875 2.0835302734375 M 3.179931640625 2.1573828125 Q 3.18023681640625 2.11984619140625 3.191986083984375 2.0890234375 Q 3.2037353515625 2.05820068359375 3.22479248046875 2.036075439453125 Q 3.245849609375 2.0139501953125 3.27484130859375 2.00204833984375 Q 3.3038330078125 1.9901464843749999 3.338623046875 1.9901464843749999 Q 3.37371826171875 1.9901464843749999 3.402862548828125 2.00204833984375 Q 3.4320068359375 2.0139501953125 3.4527587890625 2.035770263671875 Q 3.4735107421875 2.05759033203125 3.485107421875 2.0884130859375 Q 3.4967041015625 2.11923583984375 3.4967041015625 2.1567724609375 Q 3.4967041015625 2.19369873046875 3.485107421875 2.224674072265625 Q 3.4735107421875 2.2556494140625 3.4527587890625 2.27792724609375 Q 3.4320068359375 2.300205078125 3.402862548828125 2.312564697265625 Q 3.37371826171875 2.32492431640625 3.338623046875 2.32492431640625 Q 3.30291748046875 2.32492431640625 3.27392578125 2.31271728515625 Q 3.24493408203125 2.30051025390625 3.22418212890625 2.278385009765625 Q 3.20343017578125 2.256259765625 3.19183349609375 2.22543701171875 Q 3.18023681640625 2.1946142578125 3.179931640625 2.1573828125 M 3.24005126953125 2.1573828125 Q 3.24005126953125 2.18454345703125 3.247833251953125 2.20651611328125 Q 3.255615234375 2.22848876953125 3.269195556640625 2.243900146484375 Q 3.28277587890625 2.2593115234375 3.300628662109375 2.267703857421875 Q 3.3184814453125 2.27609619140625 3.338623046875 2.27609619140625 Q 3.35968017578125 2.27609619140625 3.377838134765625 2.2678564453125 Q 3.39599609375 2.25961669921875 3.409423828125 2.244205322265625 Q 3.4228515625 2.2287939453125 3.43048095703125 2.2068212890625 Q 3.4381103515625 2.1848486328125 3.4381103515625 2.1573828125 Q 3.4381103515625 2.1286962890625 3.43048095703125 2.10641845703125 Q 3.4228515625 2.084140625 3.409576416015625 2.06918701171875 Q 3.39630126953125 2.0542333984375 3.37799072265625 2.04660400390625 Q 3.35968017578125 2.038974609375 3.338623046875 2.038974609375 Q 3.3184814453125 2.038974609375 3.300628662109375 2.04660400390625 Q 3.28277587890625 2.0542333984375 3.269195556640625 2.06918701171875 Q 3.255615234375 2.084140625 3.247833251953125 2.10641845703125 Q 3.24005126953125 2.1286962890625 3.24005126953125 2.1573828125 M 3.766937255859375 2.2629736328125 L 3.811492919921875 2.2629736328125 L 3.811492919921875 2.11862548828125 Q 3.811492919921875 2.0823095703125 3.79302978515625 2.063541259765625 Q 3.774566650390625 2.04477294921875 3.740081787109375 2.04477294921875 Q 3.720245361328125 2.04477294921875 3.700103759765625 2.0542333984375 Q 3.679962158203125 2.06369384765625 3.661956787109375 2.07773193359375 L 3.661956787109375 2.2629736328125 L 3.706512451171875 2.2629736328125 L 3.706512451171875 2.3154638671875 L 3.558807373046875 2.3154638671875 L 3.558807373046875 2.2629736328125 L 3.602752685546875 2.2629736328125 L 3.602752685546875 2.0517919921875 L 3.558807373046875 2.0517919921875 L 3.558807373046875 1.9993017578124999 L 3.659515380859375 1.9993017578124999 L 3.659515380859375 2.036533203125 L 3.660125732421875 2.036533203125 Q 3.670196533203125 2.02768310546875 3.681640625 2.01974853515625 Q 3.693084716796875 2.01181396484375 3.705596923828125 2.006015625 Q 3.718109130859375 2.00021728515625 3.731689453125 1.9968603515624999 Q 3.745269775390625 1.9935034179687499 3.760223388671875 1.9935034179687499 Q 3.785552978515625 1.9935034179687499 3.805999755859375 2.0005224609375 Q 3.826446533203125 2.00754150390625 3.840789794921875 2.021884765625 Q 3.855133056640625 2.03622802734375 3.8629150390625 2.058658447265625 Q 3.870697021484375 2.0810888671875 3.870697021484375 2.1116064453125 L 3.870697021484375 2.2629736328125 L 3.914642333984375 2.2629736328125 L 3.914642333984375 2.3154638671875 L 3.766937255859375 2.3154638671875 L 3.766937255859375 2.2629736328125 M 4.080810546875 1.9993017578124999 L 4.154052734375 1.9993017578124999 L 4.154052734375 2.04538330078125 L 4.080810546875 2.04538330078125 L 4.080810546875 2.2629736328125 L 4.1302490234375 2.2629736328125 L 4.1302490234375 2.3154638671875 L 3.9764404296875 2.3154638671875 L 3.9764404296875 2.2629736328125 L 4.0240478515625 2.2629736328125 L 4.0240478515625 2.04538330078125 L 3.97186279296875 2.04538330078125 L 3.97186279296875 1.9993017578124999 L 4.0240478515625 1.9993017578124999 L 4.0240478515625 1.9498632812499999 Q 4.024658203125 1.9223974609374999 4.031982421875 1.9019506835937499 Q 4.039306640625 1.8815039062499999 4.052734375 1.8677709960937499 Q 4.066162109375 1.8540380859374999 4.0850830078125 1.8473242187499999 Q 4.10400390625 1.8406103515624999 4.127197265625 1.8406103515624999 Q 4.14337158203125 1.8406103515624999 4.15618896484375 1.8421362304687499 Q 4.16900634765625 1.8436621093749999 4.1790771484375 1.8462561035156249 Q 4.18914794921875 1.8488500976562499 4.196929931640625 1.8519018554687499 Q 4.2047119140625 1.8549536132812499 4.2108154296875 1.8580053710937499 L 4.19342041015625 1.8985937499999999 Q 4.18365478515625 1.8934057617187499 4.167938232421875 1.8897436523437499 Q 4.1522216796875 1.8860815429687499 4.1351318359375 1.8860815429687499 Q 4.10980224609375 1.8860815429687499 4.095306396484375 1.9017980957031249 Q 4.080810546875 1.9175146484374999 4.080810546875 1.9480322265624999 L 4.080810546875 1.9993017578124999 M 4.202117919921875 1.9993017578124999 L 4.305267333984375 1.9993017578124999 L 4.305267333984375 2.2629736328125 L 4.352874755859375 2.2629736328125 L 4.352874755859375 2.3154638671875 L 4.202728271484375 2.3154638671875 L 4.202728271484375 2.2629736328125 L 4.247894287109375 2.2629736328125 L 4.247894287109375 2.0517919921875 L 4.202117919921875 2.0517919921875 L 4.202117919921875 1.9993017578124999 M 4.237213134765625 1.8873022460937499 Q 4.237213134765625 1.8793676757812499 4.24041748046875 1.8721960449218749 Q 4.243621826171875 1.8650244140624999 4.24896240234375 1.8596838378906249 Q 4.254302978515625 1.8543432617187499 4.261627197265625 1.8511389160156249 Q 4.268951416015625 1.8479345703124999 4.277191162109375 1.8479345703124999 Q 4.285125732421875 1.8479345703124999 4.29229736328125 1.8511389160156249 Q 4.299468994140625 1.8543432617187499 4.3048095703125 1.8596838378906249 Q 4.310150146484375 1.8650244140624999 4.3133544921875 1.8721960449218749 Q 4.316558837890625 1.8793676757812499 4.316558837890625 1.8873022460937499 Q 4.316558837890625 1.8955419921874999 4.3133544921875 1.9028662109374999 Q 4.310150146484375 1.9101904296874999 4.3048095703125 1.9158361816406249 Q 4.299468994140625 1.9214819335937499 4.29229736328125 1.9246862792968749 Q 4.285125732421875 1.9278906249999999 4.277191162109375 1.9278906249999999 Q 4.268951416015625 1.9278906249999999 4.261627197265625 1.9246862792968749 Q 4.254302978515625 1.9214819335937499 4.24896240234375 1.9158361816406249 Q 4.243621826171875 1.9101904296874999 4.24041748046875 1.9028662109374999 Q 4.237213134765625 1.8955419921874999 4.237213134765625 1.8873022460937499 M 4.5916748046875 2.2861669921875 Q 4.57366943359375 2.30295166015625 4.551849365234375 2.3136328125 Q 4.530029296875 2.32431396484375 4.50225830078125 2.32431396484375 Q 4.47906494140625 2.32431396484375 4.459686279296875 2.31698974609375 Q 4.4403076171875 2.30966552734375 4.42626953125 2.297000732421875 Q 4.4122314453125 2.2843359375 4.404449462890625 2.26755126953125 Q 4.39666748046875 2.2507666015625 4.39666748046875 2.231845703125 Q 4.39666748046875 2.2117041015625 4.402618408203125 2.19614013671875 Q 4.4085693359375 2.180576171875 4.418487548828125 2.169132080078125 Q 4.42840576171875 2.15768798828125 4.441680908203125 2.149906005859375 Q 4.4549560546875 2.1421240234375 4.469451904296875 2.137393798828125 Q 4.48394775390625 2.13266357421875 4.499053955078125 2.130679931640625 Q 4.51416015625 2.1286962890625 4.52789306640625 2.1286962890625 Q 4.54986572265625 2.1286962890625 4.5648193359375 2.130069580078125 Q 4.57977294921875 2.13144287109375 4.59197998046875 2.13388427734375 L 4.59228515625 2.1079443359375 Q 4.59228515625 2.09115966796875 4.58740234375 2.078800048828125 Q 4.58251953125 2.0664404296875 4.57366943359375 2.058353271484375 Q 4.5648193359375 2.05026611328125 4.552459716796875 2.046298828125 Q 4.54010009765625 2.04233154296875 4.52484130859375 2.04233154296875 Q 4.510498046875 2.04233154296875 4.49737548828125 2.044315185546875 Q 4.4842529296875 2.046298828125 4.472808837890625 2.049503173828125 Q 4.46136474609375 2.05270751953125 4.451751708984375 2.056827392578125 Q 4.442138671875 2.060947265625 4.4354248046875 2.06552490234375 L 4.41680908203125 2.0261572265625 Q 4.4281005859375 2.0188330078125 4.4415283203125 2.012576904296875 Q 4.4549560546875 2.00632080078125 4.469757080078125 2.001895751953125 Q 4.48455810546875 1.9974707031249999 4.499969482421875 1.9948767089843749 Q 4.515380859375 1.9922827148437499 4.53033447265625 1.9922827148437499 Q 4.55780029296875 1.9922827148437499 4.57977294921875 1.9988439941406249 Q 4.60174560546875 2.0054052734375 4.61700439453125 2.01913818359375 Q 4.63226318359375 2.03287109375 4.6405029296875 2.054080810546875 Q 4.64874267578125 2.07529052734375 4.64874267578125 2.104892578125 L 4.6484375 2.2629736328125 L 4.68353271484375 2.2629736328125 L 4.68353271484375 2.3154638671875 L 4.5916748046875 2.3154638671875 L 4.5916748046875 2.2861669921875 M 4.5147705078125 2.27670654296875 Q 4.52606201171875 2.27670654296875 4.537353515625 2.2739599609375 Q 4.54864501953125 2.27121337890625 4.5587158203125 2.266483154296875 Q 4.56878662109375 2.2617529296875 4.57733154296875 2.255496826171875 Q 4.58587646484375 2.24924072265625 4.5916748046875 2.24252685546875 L 4.59197998046875 2.17111572265625 L 4.52606201171875 2.17111572265625 Q 4.50958251953125 2.17111572265625 4.496002197265625 2.17477783203125 Q 4.482421875 2.17843994140625 4.472503662109375 2.185458984375 Q 4.46258544921875 2.19247802734375 4.45709228515625 2.20285400390625 Q 4.45159912109375 2.21322998046875 4.45159912109375 2.22665771484375 Q 4.45159912109375 2.239169921875 4.4561767578125 2.248477783203125 Q 4.46075439453125 2.25778564453125 4.469146728515625 2.264041748046875 Q 4.4775390625 2.2702978515625 4.4891357421875 2.273502197265625 Q 4.500732421875 2.27670654296875 4.5147705078125 2.27670654296875 M 4.53033447265625 1.8647192382812499 L 4.60357666015625 1.8647192382812499 L 4.60357666015625 1.8699072265624999 L 4.5123291015625 1.9559667968749999 L 4.46533203125 1.9559667968749999 L 4.53033447265625 1.8647192382812499 M 4.723968505859375 1.9993017578124999 L 4.833221435546875 1.9993017578124999 L 4.833221435546875 2.0517919921875 L 4.803619384765625 2.0517919921875 L 4.881744384765625 2.2696875 L 4.958038330078125 2.0517919921875 L 4.938812255859375 2.0517919921875 L 4.938812255859375 1.9993017578124999 L 5.038909912109375 1.9993017578124999 L 5.038909912109375 2.0517919921875 L 5.011749267578125 2.0517919921875 L 4.908294677734375 2.3203466796875 L 4.852142333984375 2.3203466796875 L 4.748992919921875 2.0517919921875 L 4.723968505859375 2.0517919921875 L 4.723968505859375 1.9993017578124999 M 5.1385498046875 2.16470703125 Q 5.1385498046875 2.178134765625 5.140533447265625 2.189273681640625 Q 5.14251708984375 2.20041259765625 5.14617919921875 2.2104833984375 Q 5.157470703125 2.2410009765625 5.182342529296875 2.256412353515625 Q 5.20721435546875 2.27182373046875 5.2386474609375 2.27182373046875 Q 5.26336669921875 2.27182373046875 5.286712646484375 2.264957275390625 Q 5.31005859375 2.2580908203125 5.335693359375 2.2434423828125 L 5.35858154296875 2.28219970703125 Q 5.32745361328125 2.30356201171875 5.2960205078125 2.31393798828125 Q 5.26458740234375 2.32431396484375 5.230712890625 2.32431396484375 Q 5.19866943359375 2.32431396484375 5.171356201171875 2.3136328125 Q 5.14404296875 2.30295166015625 5.124359130859375 2.28189453125 Q 5.10467529296875 2.26083740234375 5.093536376953125 2.229404296875 Q 5.0823974609375 2.19797119140625 5.0823974609375 2.156162109375 Q 5.0823974609375 2.12228759765625 5.09185791015625 2.092227783203125 Q 5.101318359375 2.06216796875 5.120086669921875 2.039737548828125 Q 5.13885498046875 2.01730712890625 5.1666259765625 2.0041845703125 Q 5.19439697265625 1.9910620117187499 5.2313232421875 1.9910620117187499 Q 5.26702880859375 1.9910620117187499 5.290985107421875 2.001895751953125 Q 5.31494140625 2.0127294921875 5.330047607421875 2.030582275390625 Q 5.34515380859375 2.04843505859375 5.352935791015625 2.0713232421875 Q 5.3607177734375 2.09421142578125 5.36376953125 2.11801513671875 Q 5.36529541015625 2.12961181640625 5.365753173828125 2.141513671875 Q 5.3662109375 2.15341552734375 5.3662109375 2.16470703125 L 5.1385498046875 2.16470703125 M 5.22735595703125 2.03866943359375 Q 5.20751953125 2.03866943359375 5.192718505859375 2.044315185546875 Q 5.17791748046875 2.0499609375 5.16754150390625 2.060489501953125 Q 5.15716552734375 2.07101806640625 5.150909423828125 2.08627685546875 Q 5.1446533203125 2.10153564453125 5.1416015625 2.12045654296875 L 5.30548095703125 2.12045654296875 Q 5.30426025390625 2.10275634765625 5.299835205078125 2.087802734375 Q 5.29541015625 2.07284912109375 5.2862548828125 2.06186279296875 Q 5.277099609375 2.05087646484375 5.26275634765625 2.04477294921875 Q 5.2484130859375 2.03866943359375 5.22735595703125 2.03866943359375 M 5.441741943359375 1.8406103515624999 L 5.544281005859375 1.8406103515624999 L 5.544281005859375 2.2629736328125 L 5.591888427734375 2.2629736328125 L 5.591888427734375 2.3154638671875 L 5.441741943359375 2.3154638671875 L 5.441741943359375 2.2629736328125 L 5.487518310546875 2.2629736328125 L 5.487518310546875 1.8931005859374999 L 5.441741943359375 1.8931005859374999 L 5.441741943359375 1.8406103515624999" fill="#fbe5c1" fill-rule="nonzero"></path></g><g clip-path="url(#SvgjsClipPath1002)"><g clip-path="url(#abbcf1c87-3b61-44a2-bddb-8535e399a9ea37fe8e99-20d6-450e-9159-aafcb8da83bd)"><path d=" M -2.3131103401615594 -0.8345794568525977 C -2.394249082689413 -1.0579367203260832 -2.602610990626318 -1.160716804643229 -2.7887451462222215 -1.0931027372206836 L -5.73500207146845 -0.03277937868931824 C -5.898536150563536 0.025386963177901567 -5.992240833485171 0.18708734578589414 -5.959262221029489 0.3734076634617054 C -6.221145726939913 0.4747263754515738 -6.87189389346593 1.8290275824694824 -6.87189389346593 1.8290275824694824 L -7.250445174854628 2.032232800792939 C -7.335456088644566 2.0779821319303027 -7.374903833377046 2.174106921890742 -7.358409873097209 2.2672624266766492 L -6.992368683478321 3.445547387141649 C -6.963830036628442 3.5479644554029734 -6.856963694657317 3.6033383660715756 -6.755849760955348 3.5814829378903896 C -6.561561706259479 3.5431335494293634 -6.246156602375537 3.486800904049237 -5.965005321194647 3.499934638786738 C -5.751821815388128 3.506766787119358 -5.459565966140733 3.3559941186019584 -5.4025352129609505 3.3117247759998616 C -5.238070323466326 3.177622921738214 -3.5525588519802964 1.7684411335634591 -3.5525588519802964 1.7684411335634591 C -3.3868094441343075 1.6276653687371132 -3.3708925863021824 1.3678110294976857 -3.520920606499951 1.2141063082217372 C -3.658913248231673 1.0696445342132148 -3.89338438787566 1.065586200871223 -4.049881540350228 1.1943172791275285 L -4.844207211005205 1.8633465619005012 C -4.967548897048177 1.9639206255707382 -5.151653885973085 1.9142991231712903 -5.205743278290321 1.7653973835569645 L -5.428960920203876 1.1338425274694504 L -2.2752635893162854 0.0031219784209179924 L -1.8951485464563618 1.0734236244353461 C -1.872176145795728 1.1332468088137464 -1.9051454501474154 1.1960392783666776 -1.963665499966461 1.2123377684626133 L -3.1682551623224446 1.6424745621937866 L -3.170842815233164 1.6558037671151915 C -3.1863966570094684 1.7358162290596026 -3.2299120431879373 1.8173179876432761 -3.3028875785118306 1.8723288822560575 L -4.121107152122985 2.557470493045058 L -4.107582477017678 2.5946936009226405 C -4.0642346367111255 2.727678482704841 -3.913285114217813 2.8054569996903576 -3.779006405980252 2.755444556923103 L -3.735109387537972 2.74322301637715 C -3.6021338138597665 2.6998751760705986 -3.5202783473242683 2.5635486849540507 -3.5289907326639565 2.4303869491959373 C -3.5036168411725117 2.4422361655820755 -3.471578347220363 2.455388516527567 -3.4449106292735587 2.4605638223490067 C -3.3915751933799485 2.470933050199876 -3.3423073989323253 2.4666699385699853 -3.290442643469988 2.4490776220186903 C -3.13487630139496 2.396282056156813 -3.0465330863746702 2.2266232446327576 -3.0980348257811885 2.064392300097027 C -3.0726609342897433 2.076232208379169 -3.0406131322335996 2.0893938674286567 -3.0139454142867947 2.0945784813540915 C -2.9672745808538865 2.103644574645606 -2.911342183945562 2.100675289471075 -2.859477428483223 2.083082972919779 C -2.711869515324258 2.0356581830632443 -2.62613256942268 1.8793378845645892 -2.660218846253814 1.7343176243163443 L -1.871794513531917 1.4516398140802096 C -1.6856603579360137 1.384025746657664 -1.5895541841835659 1.174360704161404 -1.6382728004954608 1.0334173934631408 Z M -5.614210805920217 0.6273048161440802 L -5.718312641004708 0.3441243682921944 C -5.741285041665342 0.28430118391379433 -5.70832504541765 0.22151802246485852 -5.64979568749461 0.2052102242649274 L -2.703538762248381 -0.8551131342664379 C -2.6437155778699806 -0.8780855349270714 -2.580932416421045 -0.8451162305753843 -2.5646246182211136 -0.7865961807563392 L -2.4605227831366214 -0.5034157329044535 Z" fill="#e8a941" transform="matrix(1,0,0,1,0,0)" fill-rule="nonzero"></path></g><g clip-path="url(#abbcf1c87-3b61-44a2-bddb-8535e399a9ea37fe8e99-20d6-450e-9159-aafcb8da83bd)"><path d=" M -2.928255008905193 1.1909198211692105 L -2.3778202791375413 0.9934483949069168 C -2.317997094759141 0.9704853023502786 -2.292995527427512 0.9130636088026902 -2.3093033256274422 0.8545435589836452 L -2.42026523335654 0.5354338297095365 C -2.4432376340171738 0.4756106453311362 -2.5006500194607666 0.45060907799950667 -2.559170069279812 0.46690756809544265 L -3.109604799047464 0.6643789943577363 C -3.169427983425864 0.6873513950183696 -3.1944295507574934 0.744773088565958 -3.178131060661558 0.803293138385003 L -3.0671691529324603 1.1224028676591118 C -3.050861354732529 1.1809229174781568 -2.9880781932835934 1.2138922218298438 -2.928255008905193 1.1909198211692105" fill="#e8a941" transform="matrix(1,0,0,1,0,0)" fill-rule="nonzero"></path></g><g clip-path="url(#abbcf1c87-3b61-44a2-bddb-8535e399a9ea37fe8e99-20d6-450e-9159-aafcb8da83bd)"><path d=" M -1.5613227047655354 -0.5016099607293474 C -1.5920673722623224 -0.5214269141355421 -1.6292904801399049 -0.5079022390302341 -1.6424428310853978 -0.47586374507808626 L -1.7083628235807815 -0.35027880597222416 C -1.7202120399669178 -0.32490491448077874 -1.7133612754263083 -0.2889756330585562 -1.6879873839348623 -0.277126416672419 C -1.6211272729359445 -0.2295340809439672 -1.5648132437638083 -0.16323245618477222 -1.5336962521072035 -0.07414459284485186 C -1.5012761258912448 0.008260051826375348 -1.5047852810975098 0.09754338535019902 -1.5203391228738141 0.17754653919061458 C -1.525523736799249 0.20422356524141527 -1.5107052352385795 0.23478207065829504 -1.4853313437471352 0.2466405951484274 L -1.3571680598345486 0.29923138272240624 C -1.3251202577784058 0.3123744255639034 -1.2878971499008234 0.2988497504585952 -1.2801155749606723 0.2588435194863896 C -1.2395694739567347 0.12141867209838586 -1.239020295821006 -0.023787750229767868 -1.2944035145936033 -0.16602488738339072 C -1.3497960414701957 -0.30826202453701357 -1.4449993291350909 -0.42364528166392335 -1.5613227047655354 -0.5016099607293474" fill="#e8a941" transform="matrix(1,0,0,1,0,0)" fill-rule="nonzero"></path></g><g clip-path="url(#abbcf1c87-3b61-44a2-bddb-8535e399a9ea37fe8e99-20d6-450e-9159-aafcb8da83bd)"><path d=" M -1.3622502846160343 -0.8850107642996451 C -1.3929949521128213 -0.9048277177058399 -1.4302180599904037 -0.8913030426005317 -1.4433704109358967 -0.8592645486483841 L -1.5092997115352755 -0.7336889176465172 C -1.5211396198174176 -0.7083057180510766 -1.5142981633808033 -0.6723764366288539 -1.4902180983447169 -0.6538626177820143 C -1.3298208502960795 -0.5534840242956803 -1.2064605480451167 -0.4049639169451663 -1.138846480622572 -0.21882976134926313 C -1.0712324132000255 -0.03269560575336006 -1.0754769086219254 0.16714938702775917 -1.1304784951307125 0.3432866389326086 C -1.1436122298682134 0.37532513288475644 -1.1287937283075449 0.4058836383016362 -1.0967552343553981 0.4190359892471287 L -0.9685826423388155 0.4716267768211073 C -0.9365441483866679 0.4847698196626047 -0.8993210405090855 0.47125445266129207 -0.892842600128291 0.4379128241497885 C -0.8128394462878754 0.20436318680134602 -0.8115642360405069 -0.051423510992093746 -0.8954767935589878 -0.2960684083030466 C -0.9821817822760863 -0.5620288637634526 -1.1523990800398662 -0.7542691355803345 -1.3622502846160343 -0.8850107642996451" fill="#e8a941" transform="matrix(1,0,0,1,0,0)" fill-rule="nonzero"></path></g><g clip-path="url(#abbcf1c87-3b61-44a2-bddb-8535e399a9ea37fe8e99-20d6-450e-9159-aafcb8da83bd)"><path d=" M -0.49006232403958094 -0.45945355773420526 C -0.6158427333293464 -0.8091217924251939 -0.8584863882812899 -1.091557591957448 -1.164462382817896 -1.2617469654092404 C -1.1952070503146848 -1.2815639188154353 -1.2257655557315639 -1.2667361091507718 -1.2455825091377593 -1.2359914416539841 L -1.311511809737139 -1.1104158106521174 C -1.3233517180192802 -1.085041919160672 -1.316510261582665 -1.0491126377384494 -1.285765594085877 -1.0292956843322545 C -1.0372019849928629 -0.8841078782120917 -0.8401214990983759 -0.6520475375029121 -0.7306395799045466 -0.36091796883895955 C -0.6278315712754141 -0.0710543023183805 -0.631517580457591 0.23267843915533626 -0.7326222060555656 0.5036466545652645 C -0.7457652488970625 0.5356944566214079 -0.7309467473363949 0.5662529620382877 -0.6989082533842472 0.579396004879785 L -0.5707356613676646 0.631996100557759 C -0.538697167415517 0.6451391433992562 -0.508138661998637 0.630320641838588 -0.49498631105314406 0.5982728397824448 C -0.3742602022328789 0.2619338100128614 -0.3642819147498164 -0.10978532304321686 -0.49006232403958094 -0.45945355773420526" fill="#e8a941" transform="matrix(1,0,0,1,0,0)" fill-rule="nonzero"></path></g></g></g><defs><clipPath id="SvgjsClipPath1002"><path d=" M -7.362091159460674 -1.2707470579307767 h 6.962091159460674 v 4.856957983049053 h -6.962091159460674 Z"></path></clipPath><clipPath id="abbcf1c87-3b61-44a2-bddb-8535e399a9ea37fe8e99-20d6-450e-9159-aafcb8da83bd"><path d=" M -7.362095882279384 3.5862114547200497 L -0.40000641788414004 3.5862114547200497 L -0.40000641788414004 -1.2707479019727872 L -7.362095882279384 -1.2707479019727872 Z"></path></clipPath></defs></svg>